<svg width="72" height="72" viewBox="0 0 72 72" fill="none" xmlns="http://www.w3.org/2000/svg">
<path d="M53.1124 15.2273C40.3124 4.82734 28.1124 7.89401 23.6124 10.7273C33.6124 11.5272 43.1124 18.0607 46.6124 21.2275L53.1124 15.2273Z" fill="#171143"/>
<path d="M16.6124 56.2277C29.4124 66.6277 41.6124 63.5611 46.1124 60.7277C36.1124 59.9279 26.6124 53.3943 23.1124 50.2275L16.6124 56.2277Z" fill="#171143"/>
<path d="M42.1125 39.2275L55.6125 53.2275C60.8125 44.4275 51.7792 31.5609 46.6125 26.2275C39.4125 31.8275 40.6125 37.2275 42.1125 39.2275Z" fill="#171143"/>
<path d="M31.8623 28.6707L17.8183 15.2164C26.6013 9.9877 39.4974 18.979 44.8476 24.1283C39.2711 31.3465 33.8672 30.1641 31.8623 28.6707Z" fill="#171143"/>
<path d="M28.7774 31.2354L15.6124 17.5C10.4784 26.3387 19.1684 38.9743 24.3749 44.2688C31.5327 38.615 30.2923 33.2242 28.7774 31.2354Z" fill="#171143"/>
<path d="M39.6211 42.4776L53.6124 55.5C44.8543 60.7703 32.0321 52.2054 26.6575 47.0815C32.1997 39.837 37.6092 40.9937 39.6211 42.4776Z" fill="#171143"/>
</svg>
